<svg xmlns="http://www.w3.org/2000/svg" viewBox="0 0 200 280"><rect width="200" height="280" fill="#fff" rx="10"/><path d="M20 20h160v240H20z" fill="none"/><text x="10" y="35" font-family="Arial" font-size="30" fill="red">3</text><path d="M10 55 C 10 45, 20 45, 20 55 C 20 65, 30 65, 30 55 C 30 45, 40 45, 40 55" stroke="red" stroke-width="2" fill="none"/><text x="170" y="265" font-family="Arial" font-size="30" fill="red" transform="rotate(180 185 250)">3</text><path d="M160 225 C 160 235, 170 235, 170 225 C 170 215, 180 215, 180 225 C 180 235, 190 235, 190 225" stroke="red" stroke-width="2" fill="none" transform="rotate(180 175 225)"/><path d="M100 80 C 100 60, 130 60, 130 80 C 130 100, 100 130, 100 130 C 100 130, 70 100, 70 80 C 70 60, 100 60, 100 80" stroke="red" stroke-width="5" fill="none"/><path d="M100 150 C 100 130, 130 130, 130 150 C 130 170, 100 200, 100 200 C 100 200, 70 170, 70 150 C 70 130, 100 130, 100 150" stroke="red" stroke-width="5" fill="none"/><path d="M100 220 C 100 200, 130 200, 130 220 C 130 240, 100 270, 100 270 C 100 270, 70 240, 70 220 C 70 200, 100 200, 100 220" stroke="red" stroke-width="5" fill="none" transform="translate(0 -50)"/></svg>
