<svg xmlns="http://www.w3.org/2000/svg" viewBox="0 0 200 280"><rect width="200" height="280" fill="#fff" rx="10"/><path d="M20 20h160v240H20z" fill="none"/><text x="10" y="35" font-family="Arial" font-size="30" fill="black">7</text><path d="M10 45 L15 55 L20 45 L25 55 L30 45" stroke="black" stroke-width="2" fill="none"/><text x="170" y="265" font-family="Arial" font-size="30" fill="black" transform="rotate(180 185 250)">7</text><path d="M170 235 L175 225 L180 235 L185 225 L190 235" stroke="black" stroke-width="2" fill="none" transform="rotate(180 180 230)"/><path d="M70 100 l10 -20 l10 20 h-20z M80 100v20 M70 160 l10 -20 l10 20 h-20z M80 160v20 M130 100 l10 -20 l10 20 h-20z M140 100v20 M130 160 l10 -20 l10 20 h-20z M140 160v20 M100 80 l10 -20 l10 20 h-20z M110 80v20 M100 180 l10 -20 l10 20 h-20z M110 180v20 M100 130 l10 -20 l10 20 h-20z M110 130v20" stroke="black" stroke-width="3" fill="none"/></svg>
