<svg xmlns="http://www.w3.org/2000/svg" viewBox="0 0 200 280"><rect width="200" height="280" fill="#fff" rx="10"/><path d="M20 20h160v240H20z" fill="none"/><text x="10" y="35" font-family="Arial" font-size="30" fill="red">A</text><path d="M10 55 C 10 45, 20 45, 20 55 C 20 65, 30 65, 30 55 C 30 45, 40 45, 40 55" stroke="red" stroke-width="2" fill="none"/><text x="170" y="265" font-family="Arial" font-size="30" fill="red" transform="rotate(180 185 250)">A</text><path d="M160 225 C 160 235, 170 235, 170 225 C 170 215, 180 215, 180 225 C 180 235, 190 235, 190 225" stroke="red" stroke-width="2" fill="none" transform="rotate(180 175 225)"/><path d="M100 110 C 100 90, 130 90, 130 110 C 130 130, 100 160, 100 160 C 100 160, 70 130, 70 110 C 70 90, 100 90, 100 110" stroke="red" stroke-width="5" fill="none"/></svg>
