<svg xmlns="http://www.w3.org/2000/svg" viewBox="0 0 200 280"><rect width="200" height="280" fill="#fff" rx="10"/><path d="M20 20h160v240H20z" fill="none"/><text x="10" y="35" font-family="Arial" font-size="30" fill="black">A</text><path d="M15 45 C 15 35, 25 35, 25 45 C 25 55, 15 55, 15 45 M20 42v15" stroke="black" stroke-width="2" fill="none"/><text x="170" y="265" font-family="Arial" font-size="30" fill="black" transform="rotate(180 185 250)">A</text><path d="M175 235 C 175 225, 185 225, 185 235 C 185 245, 175 245, 175 235 M180 232v15" stroke="black" stroke-width="2" fill="none" transform="rotate(180 180 237.5)"/><path d="M100 100 c0-20 40-20 40 0 c0 20-40 40-40 40 c0-20-40-20-40 0 c0 20 40 40 40 40 M100 130v30" stroke="black" stroke-width="5" fill="none"/></svg>
